0
SECTION
2
HEADER
9
$INSUNITS
70
4
9
$ACADVER
1
AC1014
9
$HANDSEED
5
FFFF
0
ENDSEC
0
SECTION
2
TABLES
0
TABLE
2
VPORT
5
8
100
AcDbSymbolTable
0
ENDTAB
0
TABLE
2
LTYPE
5
5
100
AcDbSymbolTable
0
LTYPE
5
14
100
AcDbSymbolTableRecord
100
AcDbLinetypeTableRecord
2
BYBLOCK
70
0
0
LTYPE
5
15
100
AcDbSymbolTableRecord
100
AcDbLinetypeTableRecord
2
BYLAYER
70
0
0
ENDTAB
0
TABLE
2
LAYER
5
2
100
AcDbSymbolTable
70
2
0
LAYER
5
50
100
AcDbSymbolTableRecord
100
AcDbLayerTableRecord
2
0
70
0
6
CONTINUOUS
0
ENDTAB
0
TABLE
2
STYLE
5
3
100
AcDbSymbolTable
70
1
0
STYLE
5
11
100
AcDbSymbolTableRecord
100
AcDbTextStyleTableRecord
2
STANDARD
70
0
0
ENDTAB
0
TABLE
2
VIEW
5
6
100
AcDbSymbolTable
70
0
0
ENDTAB
0
TABLE
2
UCS
5
7
100
AcDbSymbolTable
70
0
0
ENDTAB
0
TABLE
2
APPID
5
9
100
AcDbSymbolTable
70
2
0
APPID
5
12
100
AcDbSymbolTableRecord
100
AcDbRegAppTableRecord
2
ACAD
70
0
0
ENDTAB
0
TABLE
2
DIMSTYLE
5
A
100
AcDbSymbolTable
70
1
0
ENDTAB
0
TABLE
2
BLOCK_RECORD
5
1
100
AcDbSymbolTable
70
1
0
BLOCK_RECORD
5
1F
100
AcDbSymbolTableRecord
100
AcDbBlockTableRecord
2
*MODEL_SPACE
0
BLOCK_RECORD
5
1B
100
AcDbSymbolTableRecord
100
AcDbBlockTableRecord
2
*PAPER_SPACE
0
ENDTAB
0
ENDSEC
0
SECTION
2
BLOCKS
0
BLOCK
5
20
100
AcDbEntity
100
AcDbBlockBegin
2
*MODEL_SPACE
0
ENDBLK
5
21
100
AcDbEntity
100
AcDbBlockEnd
0
BLOCK
5
1C
100
AcDbEntity
100
AcDbBlockBegin
2
*PAPER_SPACE
0
ENDBLK
5
1D
100
AcDbEntity
100
AcDbBlockEnd
0
ENDSEC
0
SECTION
2
ENTITIES
0
LWPOLYLINE
5
100
100
AcDbEntity
8
0
100
AcDbPolyline
90
6
70
1
43
0.0
10
-15.470053837925128
20
-1.7763568394002505e-14
10
42.264973081037382
20
99.999999999999858
10
157.73502691896269
20
99.999999999999844
10
215.47005383792515
20
0
10
157.73502691896252
20
-100.00000000000001
10
42.264972918962513
20
-99.999999719278193
0
CIRCLE
5
101
100
AcDbEntity
8
0
100
AcDbCircle
10
57.777780923578447
20
94.999999999999858
30
0
40
1.7499999999999982
0
CIRCLE
5
102
100
AcDbEntity
8
0
100
AcDbCircle
10
100.00000000000001
20
94.999999999999858
30
0
40
1.7500000000000044
0
CIRCLE
5
103
100
AcDbEntity
8
0
100
AcDbCircle
10
142.2222190764216
20
94.999999999999844
30
0
40
1.7499999999999982
0
CIRCLE
5
104
100
AcDbEntity
8
0
100
AcDbCircle
10
38.838696178689119
20
-84.065514324332966
30
0
40
1.7499999999999982
0
CIRCLE
5
105
100
AcDbEntity
8
0
100
AcDbCircle
10
17.727586762034715
20
-47.499999789458769
30
0
40
1.7500000000000044
0
CIRCLE
5
106
100
AcDbEntity
8
0
100
AcDbCircle
10
-3.3835228977323428
20
-10.934485675666856
30
0
40
1.7499999999999982
0
CIRCLE
5
107
100
AcDbEntity
8
0
100
AcDbCircle
10
203.3835228977324
20
-10.934485675667025
30
0
40
1.7499999999999982
0
CIRCLE
5
108
100
AcDbEntity
8
0
100
AcDbCircle
10
182.27241323796568
20
-47.49999978945862
30
0
40
1.7500000000000044
0
CIRCLE
5
109
100
AcDbEntity
8
0
100
AcDbCircle
10
161.1613038213107
20
-84.065514324333009
30
0
40
1.7499999999999982
0
LWPOLYLINE
5
110
100
AcDbEntity
8
0
100
AcDbPolyline
90
4
70
1
43
0.0
10
89.000000000000128
20
-79.965641360806515
10
69.000000000000156
20
-79.965641312183806
10
69.000000000000142
20
-74.965641312183791
10
89.000000000000142
20
-74.965641360806487
0
LWPOLYLINE
5
111
100
AcDbEntity
8
0
100
AcDbPolyline
90
4
70
1
43
0.0
10
131.00000000000034
20
-74.965641312183635
10
111.00000000000036
20
-74.965641360806515
10
111.0000000000004
20
-79.965641360806487
10
131.00000000000037
20
-79.965641312183635
0
LWPOLYLINE
5
112
100
AcDbEntity
8
0
100
AcDbPolyline
90
4
70
1
43
0.0
10
184.75227692782173
20
13.136033349315465
10
180.42214990889948
20
10.636033349315461
10
170.42214995100804
20
27.956541449315623
10
174.75227696993028
20
30.456541449315594
0
LWPOLYLINE
5
113
100
AcDbEntity
8
0
100
AcDbPolyline
90
4
70
1
43
0.0
10
153.7522769278215
20
66.829608383950841
10
149.42214990889934
20
64.329608383950827
10
159.42214995100795
20
47.009100332573468
10
163.75227696993011
20
49.50910033257351
0
LWPOLYLINE
5
114
100
AcDbEntity
8
0
100
AcDbPolyline
90
4
70
1
43
0.0
10
46.247723072178637
20
66.82960838395077
10
50.577850091100842
20
64.329608383950799
10
40.57785004899231
20
47.00910033257334
10
36.247723030070119
20
49.509100332573382
0
LWPOLYLINE
5
115
100
AcDbEntity
8
0
100
AcDbPolyline
90
4
70
1
43
0.0
10
15.247723072178589
20
13.136033349315287
10
19.577850091100796
20
10.636033349315317
10
29.577850048992161
20
27.956541449315523
10
25.247723030069945
20
30.456541449315473
0
LWPOLYLINE
5
116
100
AcDbEntity
8
0
100
AcDbPolyline
90
4
70
1
43
0.0
10
142.99999997568892
20
-64.965641283010157
10
57.000000024311497
20
-64.965641283010157
10
57.000000024311497
20
-54.965641283010164
10
142.99999997568892
20
-54.965641283010164
0
LWPOLYLINE
5
117
100
AcDbEntity
8
0
100
AcDbPolyline
90
4
70
1
43
0.0
10
134.76189585794575
20
69.721913193723083
10
177.76189583363444
20
-4.7562714896302793
10
169.10164179579004
20
-9.7562714896302705
10
126.10164182010136
20
64.721913193723083
0
LWPOLYLINE
5
118
100
AcDbEntity
8
0
100
AcDbPolyline
90
4
70
1
43
0.0
10
22.238104166365833
20
-4.7562714896303149
10
65.238104142054567
20
69.721913193723012
10
73.898358179898963
20
64.721913193723012
10
30.898358204210226
20
-9.7562714896303149
0
CIRCLE
5
119
100
AcDbEntity
8
0
100
AcDbCircle
10
100.00000000000016
20
1.4036086690182871e-07
30
0
40
22.499999999999993
0
ENDSEC
0
SECTION
2
OBJECTS
0
DICTIONARY
5
C
100
AcDbDictionary
3
ACAD_GROUP
350
D
3
ACAD_MLINESTYLE
350
17
0
DICTIONARY
5
D
100
AcDbDictionary
0
DICTIONARY
5
1A
330
C
100
AcDbDictionary
0
DICTIONARY
5
17
100
AcDbDictionary
0
ENDSEC
0
EOF
